# AST/ASF file generated using VICON BodyLanguage
# -----------------------------------------------
:version 1.10
:name VICON
:units
  mass 1.0
  length 0.45
  angle deg
:documentation
   .ast/.asf automatically generated from VICON data using
   VICON BodyBuilder and BodyLanguage model FoxedUp or BRILLIANT.MOD
:root
   order TX TY TZ RX RY RZ
   axis XYZ
   position 0 0 0  
   orientation 0 0 0 
:bonedata
  begin
     id 1 
     name lhipjoint
     direction 0.653368 -0.678499 0.335782 
     length 2.51848 
     axis 0 0 0  XYZ
  end
  begin
     id 2 
     name lfemur
     direction 0.34202 -0.939693 0  
     length 6.57749  
     axis 0 0 20  XYZ
    dof rx ry rz
    limits (-160.0 20.0)
           (-70.0 70.0)
           (-60.0 70.0)
  end
  begin
     id 3 
     name ltibia
     direction 0.34202 -0.939693 0   
     length 7.94618   
     axis 0 0 20   XYZ
    dof rx
    limits (-10.0 170.0)
  end
  begin
     id 4 
     name lfoot
     direction 0.0811271 -0.222895 0.971461   
     length 2.31339   
     axis -90 7.62852e-016 20   XYZ
    dof rx rz
    limits (-45.0 90.0)
           (-70.0 20.0)
  end
  begin
     id 5 
     name ltoes
     direction 1.53568e-011 -4.21885e-011 1   
     length 1.15935   
     axis -90 7.62852e-016 20   XYZ
    dof rx
    limits (-90.0 20.0)
  end
  begin
     id 6 
     name rhipjoint
     direction -0.640058 -0.688614 0.340788   
     length 2.48149  
     axis 0 0 0  XYZ 
  end
  begin
     id 7 
     name rfemur
     direction -0.34202 -0.939693 0   
     length 6.57875   
     axis 0 0 -20   XYZ
    dof rx ry rz
    limits (-160.0 20.0)
           (-70.0 70.0)
           (-70.0 60.0)
  end
  begin
     id 8 
     name rtibia
     direction -0.34202 -0.939693 0   
     length 7.977   
     axis 0 0 -20   XYZ
    dof rx
    limits (-10.0 170.0)
 end
 begin
     id 9 
     name rfoot
     direction -0.0979793 -0.269196 0.958089   
     length 2.19857  
     axis -90 -7.62852e-016 -20   XYZ
    dof rx rz
    limits (-45.0 90.0)
           (-20.0 70.0)
  end
  begin
     id 10 
     name rtoes
     direction -1.53556e-011 -4.21868e-011 1   
     length 1.09838   
     axis -90 -7.62852e-016 -20   XYZ
    dof rx
    limits (-90.0 20.0)
  end
  begin
     id 11 
     name lowerback
     direction 0.0149039 0.998517 -0.0523597   
     length 2.10809   
     axis 0 0 0   XYZ
    dof rx ry rz
    limits (-20.0 45.0)
           (-30.0 30.0)
           (-30.0 30.0)
  end
  begin
     id 12 
     name upperback
     direction -0.00882659 0.999418 -0.0329624   
     length 2.1102   
     axis 0 0 0   XYZ
    dof rx ry rz
    limits (-20.0 45.0)
           (-30.0 30.0)
           (-30.0 30.0)
  end
  begin
     id 13 
     name thorax
     direction -0.0165585 0.999826 -0.0085833   
     length 2.11039   
     axis 0 0 0   XYZ
    dof rx ry rz
    limits (-20.0 45.0)
           (-30.0 30.0)
           (-30.0 30.0)
  end
  begin
     id 14 
     name lowerneck
     direction -0.0130877 0.999911 0.00260353   
     length 1.73253   
     axis 0 0 0   XYZ
    dof rx ry rz
    limits (-20.0 45.0)
           (-30.0 30.0)
           (-30.0 30.0)
  end
  begin
     id 15 
     name upperneck
     direction -0.0348454 0.928205 -0.370435   
     length 1.66692   
     axis 0 0 0   XYZ
    dof rx ry rz
    limits (-20.0 45.0)
           (-30.0 30.0)
           (-30.0 30.0)
  end
  begin
     id 16
     name head
     direction -0.00807754 0.992494 -0.122026  
     length 1.72765  
     axis 0 0 0   XYZ
    dof rx ry rz
    limits (-20.0 45.0)
           (-30.0 30.0)
           (-30.0 30.0)
  end
  begin
     id 17 
     name lclavicle
     direction 0.987582 0.144023 0.0627671  
     length 3.49235  
     axis 0 0 0   XYZ
    dof ry rz
    limits (-20.0 10.0)
           (0.0 20.0)
  end
  begin
     id 18 
     name lhumerus
     direction 1 -4.48958e-011 -1.45183e-018   
     length 5.41917   
     axis 180 -30 -90   XYZ
    dof rx ry rz
    limits (-60.0 90.0)
           (-90.0 90.0)
           (-90.0 90.0)
  end
  begin
     id 19
     name lradius
     direction 1 -4.48999e-011 5.75106e-027   
     length 2.44373   
     axis 180 -30 -90   XYZ
    dof rx
    limits (-10.0 170.0)
  end
  begin
     id 20
     name lwrist
     direction 1 -4.48987e-011 1.53461e-026   
     length 1.22186   
     axis -1.09697e-014 90 90   XYZ
    dof ry
    limits (-180.0 0.0)
 end
  begin
     id 21 
     name lhand
     direction 1 -4.48881e-011 3.06923e-026   
     length 0.727502   
     axis -1.95843e-014 90 90   XYZ
    dof rx rz
    limits (-90.0 90.0)
           (-45.0 45.0)
  end
  begin
     id 22 
     name lfingers
     direction 1 -4.48907e-011 6.13845e-026   
     length 0.586531   
     axis -3.91686e-014 90 90   XYZ
    dof rx
    limits (0.0 90.0)
  end
  begin
     id 23
     name lthumb
     direction 0.707107 -6.3487e-011 0.707107   
     length 0.842145   
     axis -90 45 2.85299e-015   XYZ
    dof rx rz
    limits (-45.0 45.0)
           (-45.0 45.0)
  end
  begin
     id 24 
     name rclavicle
     direction -0.980998 0.169556 0.0943023   
     length 3.29272  
     axis 0 0 0   XYZ 
    dof ry rz
    limits (-10.0 20.0)
           (-20.0 0.0)
  end
  begin
     id 25 
     name rhumerus
     direction -1 -1.83355e-005 2.45537e-005  
     length 5.58976   
     axis 180 30 90   XYZ
    dof rx ry rz
    limits (-90.0 60.0)
           (-90.0 90.0)
           (-90.0 90.0)
  end
  begin
     id 26 
     name rradius
     direction -1 -4.48967e-011 5.97228e-027   
     length 2.4806   
     axis 180 30 90   XYZ
    dof rx
    limits (-10.0 170.0)
  end
  begin
     id 27 
     name rwrist
     direction -1 -4.48963e-011 1.53461e-026   
     length 1.2403   
     axis -1.09697e-014 -90 -90   XYZ
    dof ry
    limits (-180.0 0.0)
  end
  begin
     id 28
     name rhand
     direction -1 -4.48881e-011 3.06923e-026   
     length 0.816009   
     axis -1.95843e-014 -90 -90   XYZ
    dof rx rz
    limits (-90.0 90.0)
           (-45.0 45.0)
  end
  begin
     id 29
     name rfingers
     direction -1 -4.49018e-011 6.13845e-026   
     length 0.657887   
     axis -3.91686e-014 -90 -90   XYZ
    dof rx
    limits (0.0 90.0)
  end
  begin
     id 30
     name rthumb
     direction -0.707107 -6.34872e-011 0.707107   
     length 0.944599   
     axis -90 -45 -2.85299e-015   XYZ
    dof rx rz
    limits (-45.0 45.0)
           (-45.0 45.0)
  end
:hierarchy
  begin
    root lhipjoint rhipjoint lowerback
    lhipjoint lfemur
    lfemur ltibia
    ltibia lfoot
    lfoot ltoes
    rhipjoint rfemur
    rfemur rtibia
    rtibia rfoot
    rfoot rtoes
    lowerback upperback
    upperback thorax
    thorax lowerneck lclavicle rclavicle
    lowerneck upperneck
    upperneck head
    lclavicle lhumerus
    lhumerus lradius
    lradius lwrist
    lwrist lhand lthumb
    lhand lfingers
    rclavicle rhumerus
    rhumerus rradius
    rradius rwrist
    rwrist rhand rthumb
    rhand rfingers
  end

#!OML:ASF F:\VICON\USERDATA\INSTALL\rory3\rory3.ASF
:FULLY-SPECIFIED
:DEGREES
75
root 0.181854 16.4372 -25.4864 12.3464 -2.21942 -5.71518
lowerback -5.27966 2.65093 7.02921
upperback -3.37757 3.22656 2.52964
thorax -0.301527 1.53542 -1.15436
lowerneck -19.8988 -2.19104 -2.25231
upperneck 33.4799 -1.56406 -2.26
head 15.0021 -1.27554 -0.83743
rclavicle 1.72943e-014 -4.77083e-015
rhumerus -36.712 -7.76953 -73.4465
rradius 23.8001
rwrist -7.5913
rhand -3.83533 12.107
rfingers 7.12502
rthumb 21.9121 -16.6721
lclavicle 1.72943e-014 -4.77083e-015
lhumerus -55.24 30.4947 58.5814
lradius 25.886
lwrist -9.88432
lhand 3.20082 19.4127
lfingers 7.12502
lthumb 28.6524 47.2357
rfemur -25.7085 11.9466 27.8152
rtibia 29.1216
rfoot -22.632 -17.0521
rtoes -20.3008
lfemur -30.8038 4.10109 -17.6007
ltibia 65.6327
lfoot -10.8723 13.1015
ltoes -2.28909
76
root 0.170709 16.4372 -25.3781 12.1708 -2.05317 -5.37361
lowerback -5.39566 2.55713 6.88773
upperback -2.99593 3.07442 2.30602
thorax 0.154423 1.47934 -1.30036
lowerneck -20.0868 -2.02255 -1.98586
upperneck 33.295 -1.40405 -2.27205
head 14.9546 -1.17423 -0.858032
rclavicle -1.64246e-014 -1.23246e-014
rhumerus -35.6516 -8.19871 -73.6081
rradius 23.9038
rwrist -7.75892
rhand -4.10208 12.2536
rfingers 7.12502
rthumb 21.6559 -16.5553
lclavicle -1.64246e-014 -1.23246e-014
lhumerus -55.3037 31.0317 58.0515
lradius 25.5077
lwrist -10.2952
lhand 3.03968 20.0052
lfingers 7.12502
lthumb 28.4985 47.8541
rfemur -25.2426 11.7162 27.661
rtibia 29.435
rfoot -23.0561 -17.3256
rtoes -20.8185
lfemur -31.6761 3.87703 -18.0085
ltibia 65.2757
lfoot -11.6289 13.043
ltoes -3.02009
77
root 0.160156 16.4256 -25.2756 12.0206 -1.96133 -5.06525
lowerback -4.56704 2.41628 6.65273
upperback -3.26397 2.99061 2.18283
thorax -0.59502 1.41451 -1.34602
lowerneck -20.0917 -1.83922 -1.91574
upperneck 33.6484 -1.15268 -2.26636
head 15.1211 -1.05987 -0.828126
rclavicle 1.53561e-014 -7.15625e-015
rhumerus -35.6438 -7.62926 -73.8816
rradius 24.5129
rwrist -8.64094
rhand -4.99727 15.2796
rfingers 7.12502
rthumb 20.796 -13.626
lclavicle 1.53561e-014 -7.15625e-015
lhumerus -56.5702 31.4335 56.6537
lradius 24.9448
lwrist -11.0164
lhand 2.79505 19.7642
lfingers 7.12502
lthumb 28.2647 47.652
rfemur -24.8358 12.0387 27.4428
rtibia 29.7574
rfoot -23.6296 -17.8348
rtoes -20.1875
lfemur -32.5952 3.64843 -18.404
ltibia 64.8197
lfoot -12.3305 13.0915
ltoes -4.57737
78
root 0.156826 16.4185 -25.1608 11.8557 -2.32285 -5.01126
lowerback -4.4031 2.51771 6.69403
upperback -3.19913 3.13486 2.08456
thorax -0.601386 1.48597 -1.46845
lowerneck -19.8213 -1.73145 -1.73253
upperneck 33.6083 -1.012 -2.42034
head 15.0379 -0.997842 -0.89365
rclavicle 1.10077e-014 2.5842e-014
rhumerus -35.1102 -7.54087 -74.0434
rradius 24.8168
rwrist -9.05873
rhand -4.76749 12.1106
rfingers 7.12502
rthumb 21.0168 -16.7706
lclavicle 1.10077e-014 2.5842e-014
lhumerus -57.4327 31.776 55.6267
lradius 24.4709
lwrist -11.4672
lhand 2.45597 19.6239
lfingers 7.12502
lthumb 27.9406 47.5649
rfemur -24.3568 12.5002 27.4468
rtibia 30.0639
rfoot -23.9593 -17.9749
rtoes -19.3874
lfemur -33.3552 3.72332 -18.601
ltibia 64.2415
lfoot -13.2723 13.1665
ltoes -5.04225
79
root 0.150644 16.412 -25.0561 11.7292 -2.49716 -4.86257
lowerback -4.30773 2.65042 6.67378
upperback -3.25639 3.32347 1.85007
thorax -0.687092 1.57502 -1.6952
lowerneck -18.9936 -1.72083 -1.3658
upperneck 33.4428 -1.12012 -2.51978
head 14.7648 -1.00668 -1.00316
rclavicle -1.13556e-014 -1.11319e-014
rhumerus -34.8704 -7.82255 -74.1569
rradius 25.0745
rwrist -9.33055
rhand -4.99218 11.8949
rfingers 7.12502
rthumb 20.8009 -17.0101
lclavicle -1.13556e-014 -1.11319e-014
lhumerus -58.0838 31.4435 54.827
lradius 24.0585
lwrist -11.4999
lhand 2.21772 19.5326
lfingers 7.12502
lthumb 27.7128 47.5104
rfemur -24.0113 12.9905 27.3731
rtibia 30.4327
rfoot -24.1204 -18.5681
rtoes -19.5225
lfemur -34.2147 3.70105 -18.8648
ltibia 63.5895
lfoot -14.0996 13.2465
ltoes -6.24398
80
root 0.139888 16.3972 -24.9607 11.6042 -2.57503 -4.72761
lowerback -3.73921 2.56145 6.55566
upperback -3.09174 3.24999 1.75817
thorax -0.839654 1.53829 -1.75028
lowerneck -19.8582 -1.60802 -1.32744
upperneck 33.6906 -0.944021 -2.50915
head 15.0792 -0.929486 -0.990589
rclavicle -2.65378e-014 -2.78299e-014
rhumerus -33.9632 -7.65224 -74.4595
rradius 25.5156
rwrist -9.9957
rhand -4.97979 11.8805
rfingers 7.12502
rthumb 20.8128 -17.0233
lclavicle -2.65378e-014 -2.78299e-014
lhumerus -58.5325 32.1338 53.8512
lradius 23.7309
lwrist -11.7172
lhand 2.19656 19.3637
lfingers 7.12502
lthumb 27.6926 47.3449
rfemur -23.6662 13.4265 27.3659
rtibia 30.7345
rfoot -24.3312 -19.096
rtoes -18.4572
lfemur -35.121 3.66047 -19.0547
ltibia 62.8827
lfoot -14.9581 13.1498
ltoes -7.92707
